<svg fill="none" height="528" width="613" xmlns="http://www.w3.org/2000/svg" xmlns:xlink="http://www.w3.org/1999/xlink"><linearGradient id="a"><stop offset="0" stop-color="#808080" stop-opacity=".25"/><stop offset=".54" stop-color="#808080" stop-opacity=".12"/><stop offset="1" stop-color="#808080" stop-opacity=".1"/></linearGradient><linearGradient id="b" gradientUnits="userSpaceOnUse" x1="411.78" x2="400.137" xlink:href="#a" y1="342.041" y2="296.867"/><linearGradient id="c" gradientUnits="userSpaceOnUse" x1="25443.3" x2="23612.9" xlink:href="#a" y1="27808.9" y2="24985"/><linearGradient id="d" gradientUnits="userSpaceOnUse" x1="29351.2" x2="26985.8" xlink:href="#a" y1="21662.3" y2="19267.9"/><linearGradient id="e" gradientUnits="userSpaceOnUse" x1="31432" x2="28785.6" xlink:href="#a" y1="17767.2" y2="15688.5"/><linearGradient id="f" gradientUnits="userSpaceOnUse" x1="103172" x2="103172" xlink:href="#a" y1="403165" y2="50089.1"/><clipPath id="g"><path d="m0 0h613v528h-613z"/></clipPath><g clip-path="url(#g)"><path d="m290.412 522.139c42.006 0 76.058-7.771 76.058-17.357 0-9.587-34.052-17.358-76.058-17.358-42.005 0-76.058 7.771-76.058 17.358 0 9.586 34.053 17.357 76.058 17.357z" fill="#4965f6" opacity=".1"/><path d="m170.734 34.78c18.688-16.635 48.022-20.052 74.727-18.721 83.87 4.178 159.563 44.658 225.065 90.455 23.672 16.583 47.05 34.453 62.437 57.281 31.349 46.481 22.034 110.87-21.529 149.162-14.818 13.027-32.783 23.033-51.228 31.869-32.796 15.739-68.182 28.381-105.405 31.99-26.539 2.559-53.41.48-79.801-3.103-73.723-9.994-146.089-32.105-206.747-69.937-26.628-16.603-51.676-37.217-62.642-64.088-10.966-26.872-3.948-60.832 23.218-76.719 11.234-6.57 24.664-9.539 37.818-12.322 19.36-4.101 39.027-8.145 56.493-16.488 18.042-8.611 39.411-25.265 35.828-44.325-3.826-20.454-6.897-38.42 11.766-55.055z" fill="#a0b0ff" opacity=".1"/><path d="m146.141 130.73-12.598 4.875-18.419 7.121a118.176 118.176 0 0 0 -2.988-5.118c-4.364-7.23-11.587-18.478-18.01-28.362-7.236-11.165-13.474-20.55-13.474-20.55l4.517-1.28 36.845-10.685z" fill="#e6ecf8"/><path d="m146.14 130.73-12.597 4.875a94.997 94.997 0 0 1 -21.407 1.971c-4.364-7.23-11.587-18.477-18.01-28.362l-8.958-21.843 36.846-10.685z" fill="#000" opacity=".1"/><path d="m155.507 127.723s-19.578 11.58-48.809 8.957l-23.301-56.808 11.17-1.919 38.605-6.628 21.894 55.291z" fill="#4965f6"/><path d="m155.078 126.597a92.156 92.156 0 0 1 -15.304-.435c-5.809-.685-11.65-2.086-16.634-4.671a50.32 50.32 0 0 1 -10.876-7.313c-8.119-7.3-13.142-17.748-17.652-36.244l38.605-6.629z" fill="#000" opacity=".1"/><path d="m169.441 123.424s-14.44 2.827-29.116 1.087c-5.81-.684-11.651-2.092-16.635-4.67a50.797 50.797 0 0 1 -10.876-7.313c-10.045-9.041-15.355-22.892-20.819-50.87 0 0 23.986 5.758 47.696-6.898-.032.026 7.966 49.93 29.75 68.664z" fill="#f9fafb"/><path d="m140.325 124.524c-5.809-.685-11.651-2.092-16.635-4.671a50.756 50.756 0 0 1 -10.876-7.312c8.554-.698 9.782-5.375 9.782-5.375 6.315 10.051 17.729 17.358 17.729 17.358z" fill="#000" opacity=".1"/><path d="m104.369 71.926s19.507-1.1 24.951-5.304l.832 2.649s-12.892 5.688-25.783 5.758zm0 13.097s18.886-1.03 33.153-7.927l.487 1.107s-11.331 6.609-33.64 8.317zm1.516 5.118s18.893-1.036 33.16-7.927l.48 1.1s-11.324 6.61-33.64 8.318v-1.49zm1.523 5.112s18.886-1.03 33.154-7.927l.486 1.107s-11.331 6.609-33.64 8.317zm1.516 5.119s18.893-1.037 33.16-7.927l.48 1.1s-11.324 6.609-33.64 8.317zm1.523 5.112s18.886-1.03 33.154-7.927l.486 1.106s-11.331 6.609-33.64 8.318z" fill="#4965f6" opacity=".3"/><path d="m612.565 182.618.378.275.057-.595-.249-.531-.403.064z" fill="#464a5f"/><path d="m612.565 182.618.378.275.057-.595-.249-.531-.403.064z" fill="#000" opacity=".1"/><path d="m612.565 182.618.371.281-.256.429-.365-.077-.108-.147z" fill="#9c9ca1"/><path d="m612.565 182.618.371.281-.256.429-.365-.077-.108-.147z" fill="#000" opacity=".1"/><path d="m542.425 132.899-30.006 41.74a3.511 3.511 0 0 0 -.611 2.6 3.51 3.51 0 0 0 1.398 2.276l64.055 46.43a3.503 3.503 0 0 0 4.876-.768l30.537-41.849z" fill="#9c9ca1"/><path d="m542.425 132.899-30.006 41.74a3.511 3.511 0 0 0 -.611 2.6 3.51 3.51 0 0 0 1.398 2.276l64.055 46.43a3.503 3.503 0 0 0 4.876-.768l30.537-41.849z" fill="#000" opacity=".1"/><path d="m542.31 132.202-30.006 41.74a3.498 3.498 0 0 0 .787 4.869l64.036 46.424a3.502 3.502 0 0 0 4.875-.775l30.537-41.842z" fill="#9c9ca1"/><path d="m541.938 106.354.794 25.515 70.249 50.429-.666-25.963a3.71 3.71 0 0 0 -1.574-2.95l-67.619-47.665a.736.736 0 0 0 -.793-.058.733.733 0 0 0 -.295.289.736.736 0 0 0 -.096.403z" fill="#464a5f"/><path d="m541.938 106.354.794 25.515 70.249 50.429-.666-25.963a3.71 3.71 0 0 0 -1.574-2.95l-67.619-47.665a.736.736 0 0 0 -.793-.058.733.733 0 0 0 -.295.289.736.736 0 0 0 -.096.403z" fill="#000" opacity=".1"/><path d="m541.516 106.667.794 25.535 70.248 50.429-.684-25.963a3.73 3.73 0 0 0 -1.581-2.95l-67.612-47.665a.729.729 0 0 0 -.772-.053.734.734 0 0 0 -.393.667z" fill="#464a5f"/><path d="m544.35 143.641-1.817 2.559a.703.703 0 0 0 .16.973l2.559 1.919a.696.696 0 0 0 .973-.14l1.836-2.406a.696.696 0 0 0 -.122-.979l-2.61-2.06a.7.7 0 0 0 -.775-.047.706.706 0 0 0 -.204.181zm4.735 3.404-1.817 2.559a.704.704 0 0 0 .16.973l2.559 1.919a.697.697 0 0 0 .973-.141l1.836-2.405a.7.7 0 0 0 -.122-.979l-2.584-2.054a.697.697 0 0 0 -1.005.128zm4.971 3.57-1.817 2.559a.703.703 0 0 0 .16.973l2.559 1.919a.698.698 0 0 0 .973-.141l1.836-2.405a.704.704 0 0 0 -.121-.979l-2.611-2.054a.69.69 0 0 0 -.516-.139.706.706 0 0 0 -.463.267zm5.029 3.615-1.817 2.559a.706.706 0 0 0 .153.973l2.56 1.919a.696.696 0 0 0 .972-.141l1.836-2.405a.704.704 0 0 0 -.121-.979l-2.611-2.054a.696.696 0 0 0 -.972.128zm5.028 3.615-1.817 2.559a.704.704 0 0 0 .154.972l2.559 1.92a.703.703 0 0 0 .979-.141l1.836-2.406a.701.701 0 0 0 -.122-.979l-2.61-2.053a.698.698 0 0 0 -.979.128zm5.253 3.295-2.252 3.199a.332.332 0 0 0 .07.454l3.199 2.342a.33.33 0 0 0 .455-.064l2.284-2.995a.325.325 0 0 0 -.058-.454l-3.199-2.559a.33.33 0 0 0 -.267-.076.323.323 0 0 0 -.232.153zm5.029 3.615-2.252 3.199a.332.332 0 0 0 .07.454l3.199 2.341a.323.323 0 0 0 .454-.063l2.284-2.995a.33.33 0 0 0 .065-.239.328.328 0 0 0 -.122-.215l-3.199-2.559a.325.325 0 0 0 -.267-.076.318.318 0 0 0 -.133.051.322.322 0 0 0 -.099.102zm4.453 3.198-2.259 3.199a.324.324 0 0 0 -.055.243.325.325 0 0 0 .132.212l3.199 2.341a.33.33 0 0 0 .461-.064l2.284-2.987a.332.332 0 0 0 -.058-.461l-3.199-2.559a.323.323 0 0 0 -.505.076zm4.984 3.583-2.252 3.199a.321.321 0 0 0 .07.455l3.199 2.341a.333.333 0 0 0 .461-.064l2.284-2.988a.333.333 0 0 0 -.058-.46l-3.199-2.527a.322.322 0 0 0 -.263-.099.331.331 0 0 0 -.242.143zm4.811 3.474-2.252 3.199a.324.324 0 0 0 -.055.243.325.325 0 0 0 .132.212l3.199 2.348a.327.327 0 0 0 .454-.071l2.284-2.987a.334.334 0 0 0 -.057-.461l-3.199-2.527a.34.34 0 0 0 -.4-.052.336.336 0 0 0 -.106.096zm4.843 3.468-2.252 3.199a.333.333 0 0 0 .071.454l3.198 2.342a.33.33 0 0 0 .455-.064l2.284-2.994a.325.325 0 0 0 -.058-.454l-3.199-2.528a.346.346 0 0 0 -.119-.076.337.337 0 0 0 -.276.025.33.33 0 0 0 -.104.096zm4.831 3.474-2.259 3.199a.327.327 0 0 0 .077.455l3.199 2.348a.333.333 0 0 0 .461-.071l2.284-2.988a.332.332 0 0 0 -.058-.46l-3.199-2.559a.324.324 0 0 0 -.505.076zm-57.274-33.717-1.811 2.559a.706.706 0 0 0 .154.973l2.559 1.919a.712.712 0 0 0 .979-.141l1.836-2.405a.705.705 0 0 0 -.122-.979l-2.61-2.06a.707.707 0 0 0 -.985.134zm-7.217 10.045-1.811 2.559a.706.706 0 0 0 .154.972l2.559 1.92a.712.712 0 0 0 .979-.134l1.836-2.406a.707.707 0 0 0 -.121-.979l-2.611-2.06a.7.7 0 0 0 -.985.128zm11.951-6.641-1.817 2.559a.704.704 0 0 0 .154.972l2.559 1.92a.712.712 0 0 0 .979-.141l1.836-2.406a.701.701 0 0 0 -.122-.979l-2.61-2.06a.707.707 0 0 0 -.979.135zm4.971 3.595-1.81 2.56a.704.704 0 0 0 .153.972l2.559 1.919a.712.712 0 0 0 .979-.134l1.837-2.406a.701.701 0 0 0 -.122-.978l-2.61-2.061a.706.706 0 0 0 -.986.128zm5.029 3.596-1.81 2.559a.702.702 0 0 0 .153.973l2.559 1.919a.712.712 0 0 0 .979-.134l1.836-2.412a.695.695 0 0 0 -.121-.973l-2.611-2.06a.704.704 0 0 0 -.985.128zm-17.101 2.694-1.811 2.559a.705.705 0 0 0 .154.972l2.559 1.92a.71.71 0 0 0 .979-.135l1.836-2.412a.699.699 0 0 0 -.122-.972l-2.61-2.06a.701.701 0 0 0 -.985.128zm4.971 3.57-1.811 2.559a.704.704 0 0 0 .154.972l2.559 1.92a.712.712 0 0 0 .979-.141l1.836-2.406a.701.701 0 0 0 -.122-.979l-2.61-2.06a.71.71 0 0 0 -.985.135zm5.029 3.614-1.811 2.56a.704.704 0 0 0 .154.972l2.559 1.92a.712.712 0 0 0 .979-.141l1.836-2.406a.703.703 0 0 0 -.128-.979l-2.604-2.06a.704.704 0 0 0 -.985.134zm12.13-6.263-1.811 2.559a.706.706 0 0 0 .154.973l2.559 1.919a.712.712 0 0 0 .979-.134l1.836-2.412a.698.698 0 0 0 -.121-.973l-2.585-2.105a.705.705 0 0 0 -1.011.173zm5.029 3.608-1.811 2.559a.706.706 0 0 0 .154.973l2.559 1.919a.712.712 0 0 0 .979-.134l1.836-2.412a.695.695 0 0 0 -.122-.973l-2.61-2.06a.705.705 0 0 0 -.985.128zm5.259 3.295-2.259 3.199a.328.328 0 0 0 .077.455l3.199 2.341a.331.331 0 0 0 .461-.064l2.284-2.988a.332.332 0 0 0 -.058-.46l-3.199-2.56a.324.324 0 0 0 -.271-.083.326.326 0 0 0 -.234.16zm4.446 3.199-2.252 3.199a.33.33 0 0 0 .077.455l3.199 2.341a.322.322 0 0 0 .24.064.313.313 0 0 0 .214-.128l2.284-2.988a.335.335 0 0 0 -.057-.46l-3.199-2.559a.333.333 0 0 0 -.506.076zm4.99 3.583-2.258 3.199a.326.326 0 0 0 .077.454l3.199 2.342a.323.323 0 0 0 .36.022.31.31 0 0 0 .094-.086l2.284-2.988a.333.333 0 0 0 -.058-.46l-3.199-2.528a.337.337 0 0 0 -.119-.076.337.337 0 0 0 -.276.025.34.34 0 0 0 -.104.096zm4.825 3.474-2.252 3.199a.333.333 0 0 0 .07.454l3.199 2.342a.327.327 0 0 0 .454-.064l2.284-2.994a.33.33 0 0 0 .065-.239.328.328 0 0 0 -.122-.215l-3.199-2.56a.337.337 0 0 0 -.4-.025.332.332 0 0 0 -.099.102zm-38.036-19.616-1.817 2.559a.706.706 0 0 0 .154.973l2.559 1.919a.705.705 0 0 0 .979-.141l1.836-2.405a.704.704 0 0 0 -.122-.979l-2.571-2.067a.708.708 0 0 0 -.81-.056.71.71 0 0 0 -.208.197zm5.029 3.615-1.817 2.559a.706.706 0 0 0 .154.973l2.559 1.919a.705.705 0 0 0 .979-.141l1.836-2.405a.705.705 0 0 0 -.122-.979l-2.61-2.054a.706.706 0 0 0 -.516-.139.694.694 0 0 0 -.463.267zm5.022 3.615-1.81 2.559a.706.706 0 0 0 .153.972l2.56 1.92c.148.11.335.157.518.13a.697.697 0 0 0 .46-.271l1.837-2.406a.71.71 0 0 0 -.122-.978l-2.61-2.054a.702.702 0 0 0 -.986.128zm5.041 3.615-1.81 2.559a.705.705 0 0 0 .153.972l2.56 1.92a.701.701 0 0 0 .978-.141l1.837-2.406a.701.701 0 0 0 -.122-.979l-2.61-2.053a.702.702 0 0 0 -.986.128zm5.247 3.295-2.252 3.199a.326.326 0 0 0 -.061.242.322.322 0 0 0 .131.212l3.199 2.342a.337.337 0 0 0 .461-.064l2.284-2.995a.325.325 0 0 0 -.057-.454l-3.199-2.527a.326.326 0 0 0 -.506.045zm4.453 3.199-2.258 3.199a.327.327 0 0 0 .076.454l3.199 2.341a.331.331 0 0 0 .461-.064l2.278-2.987a.324.324 0 0 0 .028-.365.316.316 0 0 0 -.086-.096l-3.199-2.527a.318.318 0 0 0 -.499.045zm5.016 3.582-2.259 3.199a.324.324 0 0 0 -.055.243.325.325 0 0 0 .132.212l3.199 2.341a.33.33 0 0 0 .461-.064l2.284-2.987a.334.334 0 0 0 -.058-.461l-3.199-2.559a.328.328 0 0 0 -.272-.088.311.311 0 0 0 -.136.055.307.307 0 0 0 -.097.109zm4.792 3.474-2.252 3.199a.339.339 0 0 0 .07.461l3.199 2.342a.331.331 0 0 0 .454-.064l2.284-2.994a.331.331 0 0 0 .065-.239.33.33 0 0 0 -.122-.216l-3.199-2.559a.328.328 0 0 0 -.124-.068.325.325 0 0 0 -.275.038.34.34 0 0 0 -.1.1zm8.266-1.311-2.259 3.199a.325.325 0 0 0 .077.454l3.199 2.342a.33.33 0 0 0 .461-.064l2.284-2.988a.332.332 0 0 0 -.058-.461l-3.199-2.527a.327.327 0 0 0 -.121-.076.327.327 0 0 0 -.384.121zm4.856 3.474-2.252 3.199a.341.341 0 0 0 .07.461l3.199 2.341a.332.332 0 0 0 .454-.064l2.284-2.994a.33.33 0 0 0 .065-.239.328.328 0 0 0 -.122-.215l-3.199-2.559a.33.33 0 0 0 -.399-.03.34.34 0 0 0 -.1.1zm-21.683-.435-2.124 2.988a.436.436 0 0 0 .103.608l2.994 2.213a.434.434 0 0 0 .64-.083l2.149-2.815a.44.44 0 0 0 .104-.337.43.43 0 0 0 -.18-.303l-3.027-2.393a.443.443 0 0 0 -.659.122zm4.831 3.468-2.124 2.994a.424.424 0 0 0 -.078.324.432.432 0 0 0 .174.284l3 2.214a.463.463 0 0 0 .339.091.445.445 0 0 0 .301-.181l2.15-2.815a.433.433 0 0 0 .1-.337.445.445 0 0 0 -.177-.303l-3.033-2.386a.433.433 0 0 0 -.652.115zm4.824 3.467-2.124 2.995a.447.447 0 0 0 -.089.342.454.454 0 0 0 .191.297l3.001 2.214a.451.451 0 0 0 .338.101.448.448 0 0 0 .171-.06.455.455 0 0 0 .131-.124l2.149-2.822a.408.408 0 0 0 .077-.151.418.418 0 0 0 -.041-.329.427.427 0 0 0 -.112-.127l-3.026-2.393a.436.436 0 0 0 -.346-.12.449.449 0 0 0 -.32.177zm4.894 3.378-2.252 3.199a.333.333 0 0 0 .077.461l3.199 2.342a.327.327 0 0 0 .454-.064l2.284-2.994a.326.326 0 0 0 -.057-.455l-3.199-2.559a.33.33 0 0 0 -.506.07zm-50.447-43.442-1.92 2.745a.702.702 0 0 0 .167.979l7.511 5.349a.698.698 0 0 0 .96-.148l2.047-2.667a.705.705 0 0 0 .137-.532.695.695 0 0 0 -.291-.467l-7.632-5.425a.707.707 0 0 0 -.525-.122.697.697 0 0 0 -.454.288zm49.193 34.92-2.361 3.359a.333.333 0 0 0 -.055.243.325.325 0 0 0 .132.212l8.119 5.758a.333.333 0 0 0 .454-.071l2.496-3.263a.312.312 0 0 0 .057-.117.305.305 0 0 0 .007-.131.33.33 0 0 0 -.135-.219l-8.253-5.867a.326.326 0 0 0 -.371.002.336.336 0 0 0 -.09.094zm-32.859-15.867-2.259 3.123a.34.34 0 0 0 .071.46l17.594 12.975a.33.33 0 0 0 .454-.064l2.483-3.256a.321.321 0 0 0 .064-.249.326.326 0 0 0 -.135-.218l-17.799-12.841a.311.311 0 0 0 -.119-.06.314.314 0 0 0 -.133-.008.324.324 0 0 0 -.221.138z" fill="#000" opacity=".01"/><path d="m544.274 143.168-1.817 2.559a.705.705 0 0 0 .153.972l2.56 1.92a.706.706 0 0 0 .978-.135l1.837-2.405a.714.714 0 0 0 .142-.515.709.709 0 0 0 -.264-.464l-2.61-2.06a.706.706 0 0 0 -.516-.139.692.692 0 0 0 -.463.267zm4.734 3.403-1.817 2.56a.703.703 0 0 0 .154.972l2.559 1.919a.694.694 0 0 0 .972-.134l1.837-2.406a.687.687 0 0 0 .142-.514.7.7 0 0 0 -.264-.464l-2.61-2.061a.7.7 0 0 0 -.973.128zm4.971 3.545-1.804 2.559a.701.701 0 0 0 .154.973l2.559 1.919a.712.712 0 0 0 .979-.141l1.836-2.405a.7.7 0 0 0 -.122-.979l-2.61-2.06a.703.703 0 0 0 -.992.134zm5.029 3.64-1.817 2.559a.706.706 0 0 0 .154.973l2.559 1.919a.708.708 0 0 0 .979-.14l1.836-2.406a.696.696 0 0 0 -.122-.979l-2.61-2.06a.7.7 0 0 0 -.775-.047.706.706 0 0 0 -.204.181zm5.023 3.615-1.811 2.559a.706.706 0 0 0 .154.973l2.559 1.919a.71.71 0 0 0 .979-.14l1.836-2.406a.703.703 0 0 0 -.122-.979l-2.61-2.06a.71.71 0 0 0 -.985.134zm5.258 3.295-2.252 3.199a.33.33 0 0 0 -.058.242.322.322 0 0 0 .129.212l3.199 2.342a.33.33 0 0 0 .46-.064l2.284-2.994a.33.33 0 0 0 .065-.239.328.328 0 0 0 -.122-.215l-3.199-2.56a.344.344 0 0 0 -.271-.08.342.342 0 0 0 -.235.157zm5.029 3.615-2.252 3.199a.318.318 0 0 0 -.061.245.332.332 0 0 0 .132.216l3.199 2.341a.338.338 0 0 0 .46-.064l2.284-2.994a.33.33 0 0 0 .065-.239.328.328 0 0 0 -.122-.215l-3.199-2.559a.337.337 0 0 0 -.269-.083.344.344 0 0 0 -.136.05.354.354 0 0 0 -.101.103zm4.453 3.199-2.258 3.199a.328.328 0 0 0 .076.454l3.199 2.342a.333.333 0 0 0 .461-.064l2.284-2.994a.325.325 0 0 0 -.058-.455l-3.198-2.559a.337.337 0 0 0 -.272-.084.331.331 0 0 0 -.234.161zm4.984 3.583-2.258 3.199a.328.328 0 0 0 .076.454l3.199 2.342a.331.331 0 0 0 .461-.064l2.284-2.994a.326.326 0 0 0 -.058-.455l-3.199-2.559a.333.333 0 0 0 -.505.077zm4.824 3.468-2.252 3.199a.332.332 0 0 0 .071.454l3.199 2.342a.32.32 0 0 0 .454-.064l2.284-2.988a.333.333 0 0 0 -.057-.461l-3.199-2.527a.349.349 0 0 0 -.12-.074.35.35 0 0 0 -.14-.017.328.328 0 0 0 -.24.136zm4.831 3.474-2.252 3.199a.319.319 0 0 0 -.017.361.309.309 0 0 0 .087.093l3.199 2.342a.335.335 0 0 0 .461-.064l2.284-2.995a.323.323 0 0 0 .064-.238.33.33 0 0 0 -.122-.216l-3.199-2.559a.34.34 0 0 0 -.271-.08.324.324 0 0 0 -.234.157zm4.83 3.461-2.258 3.199a.326.326 0 0 0 .077.454l3.199 2.342a.327.327 0 0 0 .454-.064l2.284-2.988a.333.333 0 0 0 .067-.242.331.331 0 0 0 -.125-.219l-3.199-2.527a.311.311 0 0 0 -.119-.076.337.337 0 0 0 -.276.025.34.34 0 0 0 -.104.096zm-57.274-33.705-1.81 2.56a.7.7 0 0 0 .153.972l2.559 1.92a.714.714 0 0 0 .979-.141l1.836-2.406a.702.702 0 0 0 -.121-.979l-2.61-2.06a.713.713 0 0 0 -.986.134zm-7.217 10.033-1.817 2.559a.71.71 0 0 0 .16.972l2.559 1.92a.7.7 0 0 0 .973-.135l1.842-2.412a.696.696 0 0 0 -.128-.972l-2.603-2.06a.703.703 0 0 0 -.986.128zm11.952-6.629-1.811 2.559a.706.706 0 0 0 .153.973l2.56 1.919a.708.708 0 0 0 .979-.141l1.836-2.405a.703.703 0 0 0 -.122-.979l-2.61-2.06a.71.71 0 0 0 -.985.134zm4.971 3.57-1.811 2.559a.706.706 0 0 0 .154.973l2.559 1.919a.705.705 0 0 0 .979-.14l1.836-2.406a.71.71 0 0 0 -.122-.979l-2.584-2.066a.698.698 0 0 0 -.803-.052.694.694 0 0 0 -.208.192zm5.029 3.615-1.811 2.559a.706.706 0 0 0 .153.973l2.56 1.919a.705.705 0 0 0 .979-.141l1.836-2.405a.71.71 0 0 0 -.122-.979l-2.61-2.054a.706.706 0 0 0 -.985.128zm-17.102 2.694-1.811 2.559a.704.704 0 0 0 .154.972l2.559 1.92a.703.703 0 0 0 .979-.141l1.836-2.406a.705.705 0 0 0 -.128-.979l-2.604-2.053a.7.7 0 0 0 -.985.128zm4.971 3.576-1.81 2.559a.694.694 0 0 0 .153.966l2.559 1.92a.7.7 0 0 0 .973-.141l1.842-2.406a.7.7 0 0 0 -.128-.978l-2.604-2.061a.704.704 0 0 0 -.985.141zm5.029 3.615-1.817 2.559a.704.704 0 0 0 .16.966l2.559 1.92a.704.704 0 0 0 .972-.141l1.843-2.406a.703.703 0 0 0 -.128-.979l-2.572-2.066a.701.701 0 0 0 -1.017.147zm12.13-6.27-1.81 2.559a.702.702 0 0 0 .153.973l2.559 1.919a.705.705 0 0 0 .979-.141l1.836-2.405a.703.703 0 0 0 -.127-.979l-2.547-2.067a.712.712 0 0 0 -.83-.064.718.718 0 0 0 -.213.205zm5.029 3.615-1.81 2.559a.702.702 0 0 0 .153.972l2.559 1.92a.701.701 0 0 0 .973-.141l1.842-2.406a.7.7 0 0 0 -.128-.978l-2.604-2.054a.7.7 0 0 0 -.985.128zm5.259 3.295-2.258 3.199a.326.326 0 0 0 .077.454l3.198 2.342a.335.335 0 0 0 .461-.064l2.284-2.995a.317.317 0 0 0 -.064-.454l-3.199-2.527a.318.318 0 0 0 -.499.045zm4.447 3.199-2.252 3.199a.332.332 0 0 0 .07.454l3.199 2.342a.327.327 0 0 0 .454-.064l2.284-2.988a.328.328 0 0 0 .065-.242.337.337 0 0 0 -.122-.219l-3.199-2.527a.323.323 0 0 0 -.26-.094.32.32 0 0 0 -.239.139zm4.984 3.583-2.252 3.199a.332.332 0 0 0 .07.454l3.199 2.342a.327.327 0 0 0 .454-.064l2.284-2.988a.328.328 0 0 0 .065-.242.337.337 0 0 0 -.122-.219l-3.199-2.527a.323.323 0 0 0 -.12-.076.32.32 0 0 0 -.379.121zm4.83 3.474-2.252 3.199a.326.326 0 0 0 .07.454l3.199 2.348a.332.332 0 0 0 .455-.064l2.284-2.994a.332.332 0 0 0 -.058-.461l-3.199-2.527a.331.331 0 0 0 -.499.045zm-38.042-19.617-1.81 2.56a.7.7 0 0 0 .153.972l2.559 1.92a.706.706 0 0 0 .979-.141l1.836-2.406a.702.702 0 0 0 -.121-.979l-2.611-2.053a.7.7 0 0 0 -.985.127zm5.029 3.615-1.811 2.56a.703.703 0 0 0 .154.972l2.559 1.919a.705.705 0 0 0 .979-.14l1.836-2.406a.707.707 0 0 0 -.121-.979l-2.611-2.054a.704.704 0 0 0 -.985.128zm5.029 3.622-1.811 2.559a.704.704 0 0 0 .154.972l2.559 1.92a.712.712 0 0 0 .979-.141l1.836-2.406a.701.701 0 0 0 -.122-.979l-2.61-2.06a.71.71 0 0 0 -.985.135zm5.028 3.608-1.81 2.559a.702.702 0 0 0 .153.973l2.559 1.919c.15.109.335.155.518.128a.706.706 0 0 0 .461-.269l1.836-2.405a.707.707 0 0 0 -.121-.979l-2.611-2.06a.71.71 0 0 0 -.985.134zm5.26 3.295-2.259 3.199a.325.325 0 0 0 .077.454l3.199 2.342a.33.33 0 0 0 .461-.064l2.284-2.994a.325.325 0 0 0 -.058-.454l-3.199-2.56a.34.34 0 0 0 -.271-.08.325.325 0 0 0 -.134.053.32.32 0 0 0 -.1.104zm4.427 3.199-2.252 3.199a.326.326 0 0 0 .077.454l3.199 2.342a.326.326 0 0 0 .454-.064l2.284-2.994a.325.325 0 0 0 -.058-.455l-3.199-2.559a.333.333 0 0 0 -.505.077zm5.009 3.583-2.258 3.199a.328.328 0 0 0 .076.454l3.199 2.342a.33.33 0 0 0 .455-.064l2.284-2.994a.326.326 0 0 0 .026-.36.318.318 0 0 0 -.084-.095l-3.199-2.559a.329.329 0 0 0 -.401-.027.325.325 0 0 0 -.098.104zm4.825 3.474-2.252 3.199a.333.333 0 0 0 .07.454l3.199 2.348a.325.325 0 0 0 .454-.07l2.284-2.988a.333.333 0 0 0 -.057-.46l-3.199-2.56a.341.341 0 0 0 -.268-.076.333.333 0 0 0 -.231.153zm8.266-1.312-2.259 3.199a.324.324 0 0 0 -.055.243.325.325 0 0 0 .132.212l3.199 2.341a.33.33 0 0 0 .46-.064l2.285-2.988a.332.332 0 0 0 -.058-.46l-3.199-2.527a.321.321 0 0 0 -.402-.057.31.31 0 0 0 -.103.101zm4.823 3.475-2.252 3.199a.333.333 0 0 0 .071.454l3.199 2.348a.327.327 0 0 0 .454-.07l2.284-2.988a.333.333 0 0 0 -.058-.461l-3.198-2.559a.324.324 0 0 0 -.268-.076.336.336 0 0 0 -.232.153zm-21.644-.442-2.124 2.994a.437.437 0 0 0 .096.608l3.001 2.214a.438.438 0 0 0 .339.091.443.443 0 0 0 .301-.181l2.149-2.815a.433.433 0 0 0 .085-.158.43.43 0 0 0 -.041-.348.467.467 0 0 0 -.12-.134l-3.027-2.386a.437.437 0 0 0 -.355-.09.453.453 0 0 0 -.304.205zm4.818 3.474-2.118 2.988a.448.448 0 0 0 .096.64l3.001 2.214a.439.439 0 0 0 .64-.09l2.156-2.815a.44.44 0 0 0 .038-.508.427.427 0 0 0 -.122-.132l-3.026-2.386a.443.443 0 0 0 -.665.089zm4.831 3.468-2.125 2.994a.445.445 0 0 0 .103.608l2.994 2.214a.435.435 0 0 0 .339.094.435.435 0 0 0 .301-.184l2.149-2.815a.432.432 0 0 0 .046-.507.432.432 0 0 0 -.122-.133l-3.026-2.386a.442.442 0 0 0 -.53-.02.438.438 0 0 0 -.129.135zm4.894 3.378-2.252 3.199a.333.333 0 0 0 .07.454l3.199 2.348a.327.327 0 0 0 .454-.07l2.284-2.988a.335.335 0 0 0 -.057-.461l-3.199-2.559a.33.33 0 0 0 -.267-.076.332.332 0 0 0 -.232.153zm-50.48-43.442-1.919 2.745a.705.705 0 0 0 .166.978l7.518 5.349a.707.707 0 0 0 .966-.147l2.047-2.668a.68.68 0 0 0 .123-.252.692.692 0 0 0 -.276-.746l-7.633-5.426a.72.72 0 0 0 -.531-.125.706.706 0 0 0 -.461.292zm49.226 34.92-2.361 3.359a.326.326 0 0 0 .077.454l8.118 5.758c.07.049.155.069.239.056a.332.332 0 0 0 .209-.126l2.502-3.263a.326.326 0 0 0 -.07-.467l-8.254-5.867a.328.328 0 0 0 -.37.001.339.339 0 0 0 -.09.095zm-32.86-15.867-2.271 3.122a.34.34 0 0 0 .07.461l17.595 12.975a.327.327 0 0 0 .454-.07l2.482-3.257a.326.326 0 0 0 -.07-.467l-17.799-12.834a.33.33 0 0 0 -.461.07z" fill="#464a5f"/><path d="m543.404 175.17-9.955 13.775a1.785 1.785 0 0 0 .384 2.483l25.694 18.995c.189.14.405.241.634.297.229.057.466.068.699.032s.457-.117.659-.239c.201-.123.376-.283.516-.474l10.275-14.075a1.78 1.78 0 0 0 -.397-2.508l-26.014-18.714a1.79 1.79 0 0 0 -2.495.428z" fill="#000" opacity=".1"/><path d="m543.327 174.697-9.961 13.768a1.8 1.8 0 0 0 .39 2.489l25.694 18.996a1.782 1.782 0 0 0 1.333.328 1.79 1.79 0 0 0 1.175-.712l10.275-14.076a1.787 1.787 0 0 0 .32-1.337 1.808 1.808 0 0 0 -.723-1.171l-26.008-18.714a1.792 1.792 0 0 0 -2.495.429z" fill="#939498"/><path d="m544.613 110.826.429 21.542 64.894 46.494-.576-21.337a3.732 3.732 0 0 0 -1.523-2.931l-62.059-44.389a.74.74 0 0 0 -.772-.044.745.745 0 0 0 -.393.665z" fill="#4965f6"/><path d="m29.47 205.122-28.697 20.606a1.862 1.862 0 0 0 -.426 2.598l31.696 44.143a1.86 1.86 0 0 0 2.598.427l28.699-20.606a1.863 1.863 0 0 0 .426-2.599l-31.696-44.143a1.862 1.862 0 0 0 -2.599-.426z" fill="#3a3768"/><path d="m31.284 209.962-26.12 18.755a.115.115 0 0 0 -.026.161l6.523 9.084c.037.052.109.064.16.026l26.12-18.755a.115.115 0 0 0 .027-.161l-6.523-9.084a.115.115 0 0 0 -.161-.026z" fill="#000" opacity=".1"/><path d="m29.54 211.482-22.43 16.106a2.143 2.143 0 0 0 -.49 2.991l3.94 5.488a2.142 2.142 0 0 0 2.99.491l22.43-16.106a2.143 2.143 0 0 0 .492-2.991l-3.94-5.488a2.144 2.144 0 0 0 -2.992-.491z" fill="#e6e8ec"/><path d="m19.933 238.022-3.789 2.72a.89.89 0 0 0 -.203 1.241l3.138 4.371a.889.889 0 0 0 1.24.203l3.79-2.72a.89.89 0 0 0 .203-1.241l-3.138-4.371a.889.889 0 0 0 -1.241-.203zm5.31-4.832-3.778 2.705a.886.886 0 0 0 -.205 1.236l3.121 4.358a.886.886 0 0 0 1.236.205l3.778-2.705a.886.886 0 0 0 .205-1.236l-3.121-4.359a.886.886 0 0 0 -1.236-.204zm7.478-4.353-3.789 2.72a.89.89 0 0 0 -.203 1.241l3.138 4.371a.89.89 0 0 0 1.241.204l3.789-2.721a.89.89 0 0 0 .203-1.241l-3.138-4.37a.889.889 0 0 0 -1.241-.204zm6.382-4.39-3.58 2.571c-.457.328-.562.963-.234 1.42l2.99 4.162c.327.457.962.561 1.419.233l3.58-2.571c.457-.327.561-.963.233-1.419l-2.989-4.163a1.016 1.016 0 0 0 -1.42-.233zm-14.585 19.973-3.788 2.721a.89.89 0 0 0 -.204 1.241l3.138 4.37a.89.89 0 0 0 1.241.204l3.789-2.72a.89.89 0 0 0 .204-1.241l-3.139-4.371a.89.89 0 0 0 -1.24-.204zm6.401-4.597-3.788 2.721a.89.89 0 0 0 -.204 1.241l3.138 4.37a.889.889 0 0 0 1.241.204l3.789-2.72a.89.89 0 0 0 .203-1.241l-3.138-4.371a.89.89 0 0 0 -1.24-.204zm6.39-4.593-3.789 2.721a.89.89 0 0 0 -.203 1.241l3.138 4.37a.889.889 0 0 0 1.24.204l3.79-2.72a.89.89 0 0 0 .203-1.241l-3.138-4.371a.89.89 0 0 0 -1.241-.204zm-7.715 16.243-3.788 2.721a.89.89 0 0 0 -.204 1.241l3.139 4.371a.889.889 0 0 0 1.24.203l3.79-2.72a.89.89 0 0 0 .203-1.241l-3.138-4.371a.89.89 0 0 0 -1.242-.204zm6.39-4.593-3.788 2.721a.89.89 0 0 0 -.204 1.241l3.138 4.371a.889.889 0 0 0 1.241.203l3.789-2.72a.89.89 0 0 0 .203-1.241l-3.138-4.371a.89.89 0 0 0 -1.24-.204zm6.398-4.585-3.788 2.72a.89.89 0 0 0 -.204 1.242l3.139 4.37a.89.89 0 0 0 1.24.204l3.79-2.72a.89.89 0 0 0 .203-1.242l-3.138-4.37a.89.89 0 0 0 -1.242-.204zm5.065 7.057-3.788 2.721a.89.89 0 0 0 -.204 1.241l3.139 4.37a.889.889 0 0 0 1.24.204l3.79-2.72a.89.89 0 0 0 .203-1.241l-3.139-4.371a.89.89 0 0 0 -1.24-.204zm-3.404-18.769-4.288 3.078a.583.583 0 0 0 -.133.813l3.496 4.869a.582.582 0 0 0 .813.134l4.287-3.079a.581.581 0 0 0 .134-.812l-3.497-4.87a.582.582 0 0 0 -.812-.133zm-3.405 23.653-9.36 6.72a1.395 1.395 0 0 0 -.32 1.947l2.55 3.549c.448.626 1.32.769 1.946.32l9.36-6.721a1.394 1.394 0 0 0 .319-1.946l-2.549-3.55a1.394 1.394 0 0 0 -1.946-.319zm7.779-16.283-3.581 2.571a1.324 1.324 0 0 0 -.303 1.848l7.698 10.722c.427.594 1.254.73 1.848.303l3.58-2.571c.595-.427.73-1.254.304-1.848l-7.698-10.722a1.324 1.324 0 0 0 -1.848-.303z" fill="#000" opacity=".1"/><path d="m35.435 218.478-2.291 1.646.179.249 2.291-1.646zm-3.354 2.406-2.292 1.646.18.249 2.291-1.646-.18-.249zm-3.355 2.406-2.292 1.645.18.25 2.291-1.646-.18-.249zm-3.35 2.411-2.293 1.646.18.249 2.291-1.646-.179-.249z" fill="#4965f6"/><g fill="#000" opacity=".1"><path d="m404.384 43.43h-39.955a2.09 2.09 0 0 0 -2.085 2.085v25.266a2.098 2.098 0 0 0 2.085 2.092h31.35s.813 4.306-1.855 4.773c0 0 5.975.429 4.932-4.773h5.528a2.099 2.099 0 0 0 2.092-2.092v-25.266a2.096 2.096 0 0 0 -2.092-2.085z" opacity=".1"/><path d="m399.701 50.128h-30.582a.89.89 0 0 0 -.89.89v.192c0 .49.399.889.89.889h30.582a.89.89 0 0 0 .889-.89v-.191a.89.89 0 0 0 -.889-.89zm0 8.817h-30.582a.89.89 0 0 0 -.89.889v.192c0 .491.399.89.89.89h30.582a.89.89 0 0 0 .889-.89v-.192a.89.89 0 0 0 -.889-.89zm-5.221 4.408h-25.361a.89.89 0 0 0 -.89.89v.191c0 .491.399.89.89.89h25.361a.89.89 0 0 0 .889-.89v-.192a.89.89 0 0 0 -.889-.89zm-13.109-8.817h-12.252a.89.89 0 0 0 -.89.89v.192c0 .49.399.89.89.89h12.252a.89.89 0 0 0 .889-.89v-.192a.89.89 0 0 0 -.889-.89z" opacity=".04"/></g><path d="m404.73 43.27h-39.948a2.095 2.095 0 0 0 -2.093 2.085v25.24a2.08 2.08 0 0 0 1.289 1.945c.255.106.528.16.804.16h31.349s.813 4.313-1.855 4.773c0 0 5.969.429 4.926-4.773h5.541a2.094 2.094 0 0 0 2.085-2.085v-25.272a2.092 2.092 0 0 0 -2.098-2.074z" fill="#f9fafb"/><path d="m400.047 49.955h-30.582a.89.89 0 0 0 -.889.89v.192c0 .49.398.889.889.889h30.582a.89.89 0 0 0 .889-.89v-.191a.89.89 0 0 0 -.889-.89zm0 8.817h-30.582a.89.89 0 0 0 -.889.89v.191c0 .491.398.89.889.89h30.582a.89.89 0 0 0 .889-.89v-.192a.89.89 0 0 0 -.889-.89zm-5.221 4.402h-25.361a.89.89 0 0 0 -.889.889v.192c0 .491.398.89.889.89h25.361a.89.89 0 0 0 .889-.89v-.192a.89.89 0 0 0 -.889-.89zm-13.109-8.81h-12.252a.89.89 0 0 0 -.889.889v.192c0 .491.398.89.889.89h12.252a.89.89 0 0 0 .889-.89v-.192a.89.89 0 0 0 -.889-.89z" fill="#4965f6" opacity=".04"/><g fill="#000" opacity=".1"><path d="m442.951.402h-48.048a2.513 2.513 0 0 0 -2.508 2.56v30.326a2.515 2.515 0 0 0 2.508 2.514h37.696s.973 5.183-2.233 5.759c0 0 7.185.511 5.925-5.759h6.66a2.521 2.521 0 0 0 2.514-2.514v-30.326a2.507 2.507 0 0 0 -1.541-2.364 2.516 2.516 0 0 0 -.973-.196z" opacity=".1"/><path d="m437.327 8.477h-36.787c-.59 0-1.069.479-1.069 1.069v.237c0 .59.479 1.068 1.069 1.068h36.787c.591 0 1.069-.478 1.069-1.068v-.237c0-.59-.478-1.069-1.069-1.069zm-6.807 10.603h-29.98c-.59 0-1.069.478-1.069 1.068v.237c0 .59.479 1.069 1.069 1.069h29.98c.59 0 1.069-.479 1.069-1.069v-.237c0-.59-.479-1.068-1.069-1.068zm-8.995-5.298h-20.985c-.59 0-1.069.479-1.069 1.069v.237c0 .59.479 1.068 1.069 1.068h20.985c.59 0 1.068-.478 1.068-1.068v-.237c0-.59-.478-1.069-1.068-1.069z" opacity=".04"/></g><path d="m443.578 0h-48.048a2.514 2.514 0 0 0 -2.508 2.514v30.359a2.515 2.515 0 0 0 2.508 2.508h37.696s.973 5.182-2.233 5.758c0 0 7.185.518 5.931-5.758h6.654a2.521 2.521 0 0 0 2.514-2.508v-30.359a2.518 2.518 0 0 0 -2.514-2.514z" fill="#f9fafb"/><path d="m437.954 8.062h-36.788c-.59 0-1.068.478-1.068 1.068v.237c0 .59.478 1.068 1.068 1.068h36.788c.59 0 1.068-.478 1.068-1.068v-.237c0-.59-.478-1.068-1.068-1.068zm-6.807 10.601h-29.981c-.59 0-1.068.478-1.068 1.068v.237c0 .59.478 1.069 1.068 1.069h29.981c.59 0 1.068-.479 1.068-1.069v-.237c0-.59-.478-1.068-1.068-1.068zm-8.996-5.304h-20.985c-.59 0-1.068.478-1.068 1.069v.236c0 .59.478 1.069 1.068 1.069h20.985c.59 0 1.069-.479 1.069-1.069v-.236c0-.59-.479-1.069-1.069-1.069z" fill="#4965f6" opacity=".04"/><path d="m129.135 330.257 43.397-16.212a4.104 4.104 0 0 1 3.158.11 4.112 4.112 0 0 1 2.152 2.315 4.126 4.126 0 0 1 -2.419 5.31l-43.396 16.213-9.303-.935z" fill="#be8b87"/><path d="m176.53 315.184a4.13 4.13 0 0 1 -2.418 5.317l-43.397 16.212-6.98-.704-1.011 1.069 9.303.934 43.396-16.213a4.126 4.126 0 0 0 2.419-5.31 4.116 4.116 0 0 0 -1.689-2.066c.152.239.279.495.377.761z" fill="#fff" opacity=".1"/><path d="m129.141 330.258 2.892 7.735-7.633-.768-1.67-.166 2.278-2.419z" fill="#efc8c4"/><path d="m125.008 334.64c.178.132.328.297.442.486a.704.704 0 0 1 0 .755 1.78 1.78 0 0 1 -.416.301 1.398 1.398 0 0 0 -.64 1.043l-1.67-.166z" fill="#727a9c"/><path d="m407.044 295.087-13.814 3.56 11.644 45.18 13.815-3.56z" fill="url(#b)" opacity=".5"/><path d="m406.885 295.453-13.132 3.384 11.488 44.572 13.132-3.385z" fill="#f9fafb"/><path d="m405.149 296.648-9.284 2.393 2.393 9.285 9.284-2.393z" fill="#f7b643"/><path d="m407.654 306.006-9.261 2.414 2.414 9.262 9.262-2.414z" fill="#f7b643" opacity=".5"/><path d="m410.567 317.188-9.262 2.414 2.414 9.262 9.262-2.414z" fill="#f7b643" opacity=".3"/><path d="m392.672 299.718-11.951 7.746 25.24 38.94 11.95-7.746z" fill="url(#c)" opacity=".5"/><path d="m392.634 300.106-11.36 7.363 24.898 38.415 11.361-7.364z" fill="#f9fafb"/><path d="m391.382 301.802-8.031 5.206 5.205 8.032 8.032-5.206z" fill="#f97878"/><path d="m397.671 311.493-8.031 5.205 5.206 8.032 8.031-5.206z" fill="#f97878" opacity=".5"/><path d="m403.957 321.192-8.031 5.206 5.206 8.032 8.031-5.206z" fill="#f97878" opacity=".3"/><path d="m385.369 304.932-10.132 10.009 32.612 33.012 10.131-10.008z" fill="url(#d)" opacity=".5"/><path d="m385.423 305.316-9.631 9.515 32.171 32.566 9.631-9.514z" fill="#f9fafb"/><path d="m384.538 307.24-6.809 6.726 6.726 6.809 6.809-6.726z" fill="#73b53b"/><path d="m392.655 315.457-6.809 6.726 6.727 6.81 6.809-6.727z" fill="#73b53b" opacity=".5"/><path d="m400.769 323.676-6.809 6.727 6.726 6.809 6.809-6.727z" fill="#73b53b" opacity=".3"/><path d="m381.495 309.649-8.798 11.2 36.492 28.665 8.797-11.2z" fill="url(#e)" opacity=".5"/><path d="m381.588 310.024-8.363 10.646 35.999 28.278 8.363-10.646z" fill="#fff"/><path d="m380.948 312.041-5.912 7.527 7.526 5.912 5.913-7.527z" fill="#4965f6"/><path d="m390.031 319.179-5.912 7.527 7.527 5.912 5.912-7.527z" fill="#4965f6" opacity=".5"/><path d="m399.126 326.312-5.913 7.527 7.527 5.912 5.913-7.527z" fill="#4965f6" opacity=".3"/><path d="m527.409 359.087a9.875 9.875 0 0 0 -13.746 6.647 9.876 9.876 0 0 0 3.782 10.302 9.873 9.873 0 0 0 10.964.451 9.878 9.878 0 0 0 -1-17.4zm-6.724 14.523a6.122 6.122 0 1 1 8.126-2.981 6.137 6.137 0 0 1 -3.445 3.175 6.122 6.122 0 0 1 -4.681-.194z" fill="#f0cbc6"/><path d="m515.189 333.738-18.381 12.93a9 9 0 0 0 -3.884 7.364c0 4.645 2.118 11.619 12.252 17.915a9.174 9.174 0 0 0 9.923-.16l17.914-11.984z" fill="#f0cbc6"/><path d="m535.503 358.856c-2.95 2.451-9.943-1.138-15.63-8.01-5.688-6.871-7.915-14.414-4.965-16.858 2.949-2.444 9.955 1.145 15.643 8.01.358.441.716.883 1.042 1.324l.371.506a26.351 26.351 0 0 1 4.556 9.232c.064.307.128.608.166.902.339 2.169-.019 3.941-1.183 4.894z" fill="#f0cbc6"/><path d="m533.535 356.46c2.384-1.974.588-8.077-4.012-13.632-4.6-5.554-10.262-8.457-12.645-6.482-2.384 1.974-.588 8.077 4.012 13.632 4.6 5.554 10.261 8.457 12.645 6.482z" fill="#f9fafb"/><path d="m534.127 355.753c-.045.084-.096.16-.141.237a2.522 2.522 0 0 1 -.454.486c-1.452 1.21-4.127.602-7.038-1.279l-.3-.205a23.754 23.754 0 0 1 -2.713-2.188 29.308 29.308 0 0 1 -2.597-2.77c-.557-.64-1.063-1.338-1.53-2.009a25.175 25.175 0 0 1 -1.823-3.033.992.992 0 0 1 -.064-.115c-1.919-3.769-2.246-7.115-.595-8.478 2.386-1.976 8.049.928 12.649 6.482.55.639 1.062 1.337 1.522 2.015.103.134.199.275.288.416 2.841 4.203 3.967 8.356 2.796 10.441z" fill="#000" opacity=".1"/><path d="m536.52 353.06a4.104 4.104 0 0 1 -2.099 1.971l-.294.102a3.255 3.255 0 0 1 -.64.128 5.335 5.335 0 0 1 -2.246-.262c-3.019-.954-4.414-.935-5.047-.64a23.775 23.775 0 0 1 -2.713-2.188 29.33 29.33 0 0 1 -2.598-2.771c-.556-.639-1.062-1.337-1.529-2.009a25.034 25.034 0 0 1 -1.823-3.032c3.052 1.215 9.002 3.365 11.004 2.45a6.256 6.256 0 0 0 2.303-2.226l.199-.307.083-.135c.16-.262.32-.518.461-.787 2.584 3.372 4.293 6.84 4.939 9.706z" fill="#000" opacity=".1"/><path d="m536.686 353.962a4.135 4.135 0 0 1 -2.559 2.412 3.24 3.24 0 0 1 -.64.128 5.335 5.335 0 0 1 -2.246-.262c-2.181-.685-3.518-.87-4.325-.813-.248.009-.492.06-.722.154a23.775 23.775 0 0 1 -2.713-2.188 29.33 29.33 0 0 1 -2.598-2.771c-.556-.639-1.062-1.337-1.529-2.009a24.506 24.506 0 0 1 -1.823-3.032c.134.057.268.115.422.166 3.154 1.241 8.669 3.154 10.582 2.29a6.288 6.288 0 0 0 2.31-2.245l.198-.307.083-.135c.045-.063.085-.13.122-.198.259-.429.496-.871.71-1.324a26.332 26.332 0 0 1 4.555 9.232c.071.307.135.608.173.902z" fill="#000" opacity=".1"/><path d="m543.992 333.949a9.056 9.056 0 0 1 -2.367 1.356 7.68 7.68 0 0 0 -4.555 8.727l.038.16c1.043 4.396.589 10.538-2.981 11.561a3.255 3.255 0 0 1 -.64.128 5.32 5.32 0 0 1 -2.246-.262c-3.019-.953-4.414-.934-5.047-.64a23.667 23.667 0 0 1 -2.713-2.188 29.319 29.319 0 0 1 -2.598-2.77c-.556-.64-1.062-1.337-1.529-2.009a25.046 25.046 0 0 1 -1.823-3.033c3.052 1.216 9.002 3.366 11.004 2.457a6.283 6.283 0 0 0 2.31-2.246l.198-.307.083-.134a15.47 15.47 0 0 0 2.284-7.172c.237-3.455 1.766-9.456 9.7-7.575a2.244 2.244 0 0 1 .882 3.947z" fill="#59393c"/><g fill="#4965f6"><path d="m451.537 500.917s-27.051-1.631-23.858 17.326c0 0-.64 3.346 2.399 4.869 0 0 .051-1.408 2.777-.928.97.164 1.955.211 2.936.141a6.084 6.084 0 0 0 3.596-1.484s7.601-3.142 10.563-15.567c0 0 2.182-2.712 2.098-3.41l-4.568 1.952s1.561 3.295.333 6.026c0 0-.147-5.905-1.024-5.758-.179 0-2.373 1.145-2.373 1.145s2.687 5.759.64 9.905c0 0 .774-7.038-1.498-9.489l-3.199 1.875s3.135 5.925 1.011 10.755c0 0 .544-7.409-1.682-10.301l-2.911 2.272s2.943 5.841 1.145 9.846c0 0-.23-8.631-1.779-9.283 0 0-2.559 2.245-2.936 3.199 0 0 2.021 4.235.767 6.474 0 0-.767-5.758-1.401-5.758 0 0-2.559 3.839-2.796 6.398 0 0 .109-3.89 2.182-6.788a7.607 7.607 0 0 0 -3.883 2.009s.396-2.694 4.51-2.924c0 0 2.099-2.892 2.662-3.071 0 0-4.095-.339-6.577.761 0 0 2.181-2.559 7.325-1.388l2.873-2.348s-5.387-.736-7.678.083c0 0 2.636-2.252 8.452-.64l3.135-1.868s-4.6-.992-7.338-.64c0 0 2.891-1.561 8.253.128l2.239-1.004s-3.372-.64-4.357-.768-1.036-.378-1.036-.378a11.687 11.687 0 0 1 6.327.704s4.754-1.772 4.671-2.073z"/><path d="m432.906 528c10.572 0 19.143-1.45 19.143-3.237 0-1.788-8.571-3.238-19.143-3.238s-19.142 1.45-19.142 3.238c0 1.787 8.57 3.237 19.142 3.237z" opacity=".1"/><path d="m503.424 450.975s-15.246-.922-13.436 9.763c-.092.542-.011 1.1.232 1.593a2.61 2.61 0 0 0 1.125 1.152s0-.787 1.561-.519c.547.09 1.103.116 1.657.077a3.46 3.46 0 0 0 2.028-.838s4.286-1.766 5.95-8.778c0 0 1.235-1.523 1.183-1.919l-2.559 1.1s.877 1.856.186 3.397c0 0-.083-3.333-.576-3.25-.102 0-1.337.64-1.337.64s1.516 3.237.371 5.586c0 0 .435-3.986-.845-5.349l-1.81 1.03s1.766 3.34.569 6.065c0 0 .307-4.178-.947-5.809l-1.644 1.279s1.664 3.289.64 5.547c0 0-.128-4.862-1.005-5.233a9.908 9.908 0 0 0 -1.65 1.791s1.132 2.387.428 3.647c0 0-.428-3.244-.786-3.256 0 0-1.434 2.149-1.581 3.621a7.833 7.833 0 0 1 1.235-3.839 4.335 4.335 0 0 0 -2.194 1.132s.223-1.516 2.559-1.65c0 0 1.183-1.632 1.497-1.728 0 0-2.31-.192-3.705.429 0 0 1.229-1.433 4.127-.78l1.625-1.325s-3.039-.416-4.331.045c0 0 1.484-1.28 4.766-.346l1.766-1.055a16.127 16.127 0 0 0 -4.139-.359s1.631-.876 4.657.077l1.28-.569s-1.92-.371-2.457-.429c-.537-.057-.582-.217-.582-.217a6.575 6.575 0 0 1 3.563.396s2.63-.953 2.579-1.119z"/><path d="m492.925 466.24c5.961 0 10.793-.816 10.793-1.823s-4.832-1.824-10.793-1.824-10.794.817-10.794 1.824 4.833 1.823 10.794 1.823z" opacity=".1"/><path d="m413.412 460.245s-18.407-1.113-16.238 11.792a3.153 3.153 0 0 0 1.638 3.314s.032-.953 1.919-.64c.66.109 1.33.141 1.997.096a4.222 4.222 0 0 0 2.45-1.011s5.176-2.137 7.185-10.601c0 0 1.491-1.843 1.433-2.316l-3.109 1.324s1.062 2.246.223 4.108c0 0-.095-4.025-.697-3.929-.121 0-1.612.775-1.612.775s1.83 3.909.448 6.743c0 0 .524-4.811-1.018-6.462l-2.188 1.28s2.137 4.03.685 7.325c0 0 .371-5.048-1.145-7.037l-1.984 1.541s2.009 3.974.787 6.706c0 0-.16-5.874-1.215-6.322 0 0-1.734 1.529-1.996 2.163 0 0 1.375 2.879.518 4.408 0 0-.518-3.916-.947-3.935 0 0-1.728 2.56-1.919 4.37a9.403 9.403 0 0 1 1.484-4.619 5.197 5.197 0 0 0 -2.642 1.369s.268-1.836 3.071-1.996c0 0 1.426-1.964 1.81-2.086 0 0-2.789-.23-4.478.518 0 0 1.484-1.734 4.99-.947l1.958-1.593s-3.673-.505-5.227.051c0 0 1.791-1.529 5.758-.415l2.13-1.28s-3.128-.64-4.996-.429c0 0 1.97-1.062 5.617.09l1.529-.685s-2.297-.454-2.969-.524c-.671-.071-.703-.256-.703-.256a7.94 7.94 0 0 1 4.305.48s3.206-1.165 3.148-1.37z"/><path d="m400.738 478.678c7.197 0 13.032-.985 13.032-2.201 0-1.215-5.835-2.201-13.032-2.201-7.198 0-13.033.986-13.033 2.201 0 1.216 5.835 2.201 13.033 2.201z" opacity=".1"/></g><path d="m374.954 188.05s.998-2.988-.397-4.537l-2.891-3.199-14.716-21.343s-3.582-4.249-2.987-6.757-3.385-5.214-3.385-5.214 2.163-2.681.896-4.28c-1.267-1.6-3.289-4.057-3.289-4.927s-7.645-12.156-17.607-14.907l.307-.224a15.846 15.846 0 0 0 -1.746-.288c-7.211-.793-10.621-1.203-16.82-3.839l-.333.352-.857-.352c-1.747-.742-3.711-1.65-6.04-2.795a395.463 395.463 0 0 1 -7.882-4.006 21.02 21.02 0 0 1 -3.839-7.095c-.108-.32-.204-.64-.294-.992a21.887 21.887 0 0 0 11.145-18.957 21.399 21.399 0 0 0 -2.93-10.832c-.122-.21-.262-.41-.39-.64.044-.05.089-.096.128-.147.131-.175.25-.359.358-.55.207-.387.384-.79.531-1.203.077-.204.147-.41.217-.64.288-.838.576-1.676.87-2.514l.864-2.514a16.714 16.714 0 0 0 1.056-4.722 6.141 6.141 0 0 0 -.243-2.022 5.194 5.194 0 0 0 -.397-.934 4.666 4.666 0 0 0 -.281-.448c-1.459-2.06-4.588-2.924-5.259-5.336a4.443 4.443 0 0 1 -.135-1.17v-1.28-.314-.191a4.12 4.12 0 0 0 -.185-1.088c0-.045 0-.09-.045-.128a4.535 4.535 0 0 0 -.218-.512 4.252 4.252 0 0 0 -.364-.582 8.396 8.396 0 0 0 -4.408-2.815 17.364 17.364 0 0 0 -11.913.767 3.885 3.885 0 0 1 -1.677.5c-.946 0-1.676-.781-2.495-1.242-2.636-1.49-5.937.09-8.471 1.74a12.998 12.998 0 0 0 -3.371 2.828c-.832 1.1-1.28 2.419-2.067 3.558-2.431 3.615-7.281 4.779-10.793 7.428-3.8 2.866-5.918 7.479-6.443 12.118-.524 4.638.416 9.334 1.83 13.8.152.497.33.986.531 1.465-.544 6.161 2.009 14.005 2.374 15.355.601 2.22-7.166 9.271-7.166 9.271l-23.909 20.697s-.096-.595-3.16-.377c-3.065.218-8.81 7.172-8.81 7.172l.46.039c-.294.339-.46.543-.46.543l1.247.103c-3.71 3.199-8.086 7.037-10.358 9.283-.64.602-1.151 1.12-1.522 1.523-3.199 3.474-1.094 13.039-1.094 13.039s-.5 5.886 8.765 6.66c0 0 10.754 2.124 16.033 0 5.278-2.124 15.303-2.655 15.303-2.655s-4.101 13.762-3.838 17.819c.262 4.056-2.739 18.47-2.739 18.47l-9.161 48.158s-8.574 16.737 17.274 19.194v.781s.64.096 1.644.204a290.7 290.7 0 0 0 -.134 1.721c-.333 4.223-.691 9.303-.518 9.853a4.546 4.546 0 0 0 1.599 1.837l.998 8.496s.992 7.319 1.92 9.456c.927 2.137 3.198 7.831 2.789 9.668-.409 1.836 1.491 7.914 1.491 7.914s.895 5.892 1.196 7.338 0 15.835 0 15.835a27.422 27.422 0 0 0 5.88 2.112c.057.23.115.473.179.716.94 3.839 2.258 9.162 2.981 11.933 1.19 4.632 3.781 12.744 3.781 12.744s.295 10.531 2.086 12.56c1.792 2.028 1.395 21.919 8.957 34.082 5.432 8.733 12.092 25.265 15.419 33.909-.121 3.903-.307 8.164-.576 11.804a8.482 8.482 0 0 0 -2.073 3.749c-.895 4.345-6.468 11.677-6.468 11.677s-5.675 4.734-8.068 5.412a4.253 4.253 0 0 0 -1.202.64c-2.457 1.747-5.343 6.354.505 8.164 2.239.691 5.432.64 8.899.122a11.393 11.393 0 0 0 0 1.81s-2.987 7.339-4.286 10.141c-.474 1.024-1.536 2.495-2.476 4.05-1.651 2.726-2.924 5.701 0 6.961.896.384 16.334-.288 21.51 1.35 5.175 1.638 8.861-3.768 8.861-3.768s.396-5.503 1.593-7.819c.678-1.324.198-4.229-.339-6.494-.416-1.714-.858-3.058-.858-3.058a92.578 92.578 0 0 1 -1.279-13.954l7.62-5.553a6.858 6.858 0 0 0 2.674-7.198l-.256-1.017c-1.184-4.645-3.039-11.011-5.003-14.076a13.24 13.24 0 0 1 1.279-3.269c2.387-3.474 6.776-25.01 7.87-28.299.327-1.14.592-2.298.793-3.467 1.376-6.782 3.461-23.289.077-30.928l-1.734-18.657s-.992-14.286.102-19.789a92.6 92.6 0 0 0 1.139-10.755v-.256l10.32.506v-48.209l.902-16.929.09-1.715c.456.159.922.287 1.394.384 1.958-1.247 2.451-4.286 2.361-7.402a31.111 31.111 0 0 0 -.345-4.991 12.112 12.112 0 0 0 3.333-5.86l21.606-19.527.089-.173c.487-.979 2.937-5.918 3.877-8.522.864-2.405.295-15.355.071-19.654 1.414.121 3.128.256 4.76.339 2.482.134 4.753.147 5.47-.16 1.798-.774 4.082-6.187 5.873-9.463 1.792-3.276-1.177-10.62-1.177-10.62zm-113.012-75.682s.505-4.805.563-10.736l3.199-1.062c.486.454.985.889 1.51 1.279.085.427.162.875.23 1.344.557 3.609.787 7.876-.128 11.721-.153.109-4.382 2.969-5.412 6.027-.544 1.632-2.208 2.329-3.679 2.63-.831.158-1.676.225-2.521.198 0 0-1.561.256-3.922.64zm21.292 230.589c-.134-.364-.249-.69-.358-.978l.275-.167v-2.22c.025.864.045 2.022.083 3.34z" fill="url(#f)"/><path d="m318.953 129.495s-10.793 13.781-19.436 24.645c-5.573 6.993-10.237 12.796-10.589 12.892a5.495 5.495 0 0 1 -1.049-.051c-4.351-.384-20.876-2.687-28.394-3.749l-3.762-.531s.237-6.501 1.235-14.383c1.184-9.456 3.468-20.896 7.716-25.464a12.99 12.99 0 0 0 2.732-4.651c1.51-4.287 1.279-9.405.678-13.622a51.48 51.48 0 0 0 -1.964-8.317s27.427-16.168 25.981-1.44a28.018 28.018 0 0 0 1.005 11.216c2.073 6.667 6.219 9.597 6.219 9.597l.115.083z" fill="#ffb9b9"/><path d="m293.106 106.066a21.961 21.961 0 0 1 -24.996-1.485 51.48 51.48 0 0 0 -1.964-8.317s27.427-16.168 25.981-1.44c-.439 3.775-.106 7.6.979 11.242z" fill="#000" opacity=".1"/><path d="m303.592 86.187a21.927 21.927 0 0 1 -34.151 18.218 21.93 21.93 0 0 1 -7.394-27.988 21.922 21.922 0 0 1 26.806-10.928 21.925 21.925 0 0 1 14.739 20.698z" fill="#ffb9b9"/><path d="m300.739 75.387a3.579 3.579 0 0 1 -.25.39c-1.446 1.965-4.248 2.285-6.679 2.08-2.873-.25-6.053-1.28-7.281-3.877-1.132-2.406-.819-4.984-3.935-5.343-2.7-.313-6.321-2.2-8.957-1.12-2.079.865-2.911 3.385-3.103 5.638-.192 2.252 0 4.638-1.049 6.64-.992 1.888-2.924 3.142-3.928 5.023-1.126 2.124-.89 4.683-.595 7.076.294 2.393.595 4.927-.448 7.096-.09.19-.192.374-.307.55a21.936 21.936 0 0 1 -4.168-16.959 21.943 21.943 0 0 1 17.816-17.935 21.942 21.942 0 0 1 22.884 10.741z" fill="#000" opacity=".1"/><path d="m286.548 72.828c1.229 2.604 4.409 3.628 7.281 3.871 2.431.211 5.234-.109 6.68-2.08a8.404 8.404 0 0 0 1.068-2.36l1.676-5.016c.883-2.655 1.715-5.758.135-8.094-1.414-2.053-4.441-2.91-5.087-5.323-.3-1.12 0-2.316-.16-3.461-.371-2.36-2.719-3.897-5.003-4.6a16.262 16.262 0 0 0 -11.516.767 3.724 3.724 0 0 1 -1.619.493c-.915 0-1.618-.774-2.412-1.235-2.559-1.484-5.758.09-8.183 1.734a12.553 12.553 0 0 0 -3.262 2.822c-.8 1.094-1.28 2.405-1.997 3.544-2.354 3.602-7.037 4.76-10.428 7.403-3.679 2.853-5.726 7.447-6.225 12.073-.499 4.625.396 9.302 1.759 13.755.234.88.59 1.721 1.056 2.502 1.382 2.099 4.133 2.994 5.476 5.118 1.082 1.709 1.184 4.101 2.828 5.285 1.952 1.401 4.895 0 5.931-2.194 1.037-2.195.742-4.716.448-7.102-.294-2.387-.531-4.952.595-7.076.998-1.881 2.943-3.135 3.928-5.023 1.043-2.002.864-4.389 1.049-6.64.186-2.253 1.024-4.767 3.11-5.631 2.617-1.088 6.238.806 8.957 1.113 3.096.371 2.783 2.943 3.915 5.355z" fill="#b96b6b"/><path d="m254.636 91.856c-1.35-2.124-4.101-3.02-5.483-5.118a.437.437 0 0 1 0-.052c.038.148.083.295.128.442.234.879.589 1.72 1.055 2.501 1.382 2.099 4.133 2.995 5.477 5.119.077.121.153.25.224.384a22.389 22.389 0 0 0 -1.401-3.276zm42.514-40.909a3.952 3.952 0 0 0 1.017 1.721c.057-.764.057-1.532 0-2.297a4.44 4.44 0 0 0 -1.101-2.258c-.084.945-.056 1.896.084 2.834zm-15.688 13.647c-2.7-.307-6.328-2.2-8.957-1.113-2.086.863-2.918 3.378-3.103 5.63-.186 2.252 0 4.639-1.056 6.641-.985 1.888-2.924 3.142-3.922 5.023-1.132 2.124-.889 4.683-.595 7.076s.589 4.926-.448 7.102c-1.036 2.175-3.986 3.595-5.937 2.194a3.973 3.973 0 0 1 -1.145-1.376c.64 1.542.966 3.302 2.303 4.261 1.951 1.402 4.894 0 5.931-2.194 1.036-2.194.742-4.715.448-7.102-.295-2.386-.531-4.952.595-7.076.998-1.881 2.943-3.135 3.928-5.022 1.043-2.003.864-4.39 1.049-6.642.186-2.252 1.024-4.766 3.11-5.63 2.616-1.087 6.238.806 8.957 1.114a3.061 3.061 0 0 1 2.29 1.19c-.646-1.977-.883-3.775-3.448-4.076zm21.925-5.445a6.214 6.214 0 0 0 -.294-.383c.166 1.817-.403 3.806-.998 5.591l-1.67 5.016a8.219 8.219 0 0 1 -1.075 2.361c-1.439 1.964-4.248 2.284-6.679 2.08-2.623-.224-5.509-1.1-6.916-3.25.21.772.475 1.53.793 2.264 1.229 2.604 4.408 3.628 7.281 3.871 2.431.211 5.233-.109 6.679-2.08a8.377 8.377 0 0 0 1.069-2.36c.556-1.67 1.119-3.34 1.676-5.016.883-2.655 1.715-5.784.134-8.094z" fill="#000" opacity=".01"/><path d="m259.075 72.17-8.032 2.73a2.988 2.988 0 0 0 -1.868 3.79l7.908 23.268a2.987 2.987 0 0 0 3.79 1.867l8.032-2.73a2.987 2.987 0 0 0 1.868-3.79l-7.907-23.268a2.988 2.988 0 0 0 -3.791-1.867z" fill="#464a5f"/><path d="m258.559 72.17-8.032 2.73a2.988 2.988 0 0 0 -1.868 3.79l7.907 23.268a2.989 2.989 0 0 0 3.791 1.868l8.032-2.73a2.989 2.989 0 0 0 1.868-3.79l-7.908-23.268a2.988 2.988 0 0 0 -3.79-1.868z" fill="#9c9ca1"/><path d="m257.182 84.345a2.271 2.271 0 1 0 0-4.543 2.271 2.271 0 0 0 0 4.543z" fill="#939498"/><path d="m255.627 344.116s2.79 11.74 3.948 16.359c1.158 4.62 3.66 12.707 3.66 12.707s.287 10.486 2.015 12.508c1.727 2.021 1.35 21.849 8.663 33.973 7.312 12.124 16.941 39.367 16.941 39.367l1.28 9.238 12.322-14.337-10.237-52.464s-5.962-21.267-4.139-27.908-7.601-32.431-7.601-32.431z" fill="#ffb9b9"/><path d="m304.424 453.924-12.322 14.344-1.28-9.238s-9.597-27.236-16.942-39.367c-7.344-12.131-6.929-31.945-8.662-33.967-1.734-2.022-2.016-12.514-2.016-12.514s-2.501-8.087-3.659-12.707c-.691-2.757-1.964-8.074-2.879-11.887-.64-2.559-1.069-4.479-1.069-4.479l26.871-2.981s.301.812.774 2.188c2.221 6.366 8.318 24.779 6.827 30.243-1.83 6.641 4.146 27.908 4.146 27.908z" fill="#000" opacity=".05"/><path d="m308.544 477.891-10.761 8.081c-5.202 5.585-20.473 10.204-27.14 8.087-5.656-1.805-2.866-6.398-.486-8.139a3.929 3.929 0 0 1 1.158-.639c2.31-.679 7.799-5.394 7.799-5.394s5.387-7.313 6.251-11.644c.863-4.332 7.037-7.895 7.037-7.895s8.273-8.081 12.028-6.45c2.451 1.075 4.984 9.834 6.456 15.778l.243 1.017a6.94 6.94 0 0 1 -2.585 7.198z" fill="#c7c0d9"/><path d="m308.544 477.891-10.761 8.081c-5.202 5.585-20.473 10.204-27.14 8.087-5.656-1.805-2.866-6.398-.486-8.139 2.297 3.59 10.684 2.944 10.684 2.944l14.92-6.642 15.118-12.52.244 1.017a6.947 6.947 0 0 1 -2.579 7.172z" fill="#000" opacity=".1"/><path d="m291.692 458.339s-9.597-27.243-16.935-39.367-6.929-31.952-8.663-33.973c-1.734-2.022-2.022-12.508-2.022-12.508s-2.501-8.087-3.653-12.707c-.697-2.764-1.97-8.074-2.885-11.887a202.621 202.621 0 0 1 -1.069-4.479l25.189-2.802-.071-.186-26.871 2.988s.448 1.92 1.069 4.479c.908 3.839 2.188 9.123 2.879 11.887 1.151 4.62 3.653 12.707 3.653 12.707s.288 10.486 2.022 12.508c1.734 2.021 1.343 21.849 8.663 33.973 7.319 12.124 16.935 39.367 16.935 39.367l1.279 9.238 1.497-1.74z" fill="#000" opacity=".05"/><path d="m355.332 171.607h-30.025v34.683h30.025z" fill="#caa8b1"/><path d="m357.501 228.6c-.909 2.591-3.276 7.511-3.749 8.484-.051.121-.083.179-.083.179l-21.581 20.089-.518.48-.134-.441c-1.139-3.839-9.258-31.062-10.237-32.547-.78-1.17-.403-5.975-.16-8.394.09-.857.16-1.407.16-1.407l-.627-18.862 3.199-6.142 29.629 9.38 4.152 8.157s.96 18.132-.051 21.024z" fill="#caa8b1"/><path d="m353.751 237.084c-.051.121-.083.179-.083.179l-21.58 20.09-.64.038-7.37.441-5.349-43.384s.877.799 2.336 2.002c4.248 3.5 13.435 10.442 20.473 11.357 6.922.902 10.691 6.391 12.213 9.277zm2.233-10.934s-4.478-.435-6.397-2.201c-1.92-1.766-6.859-4.588-6.859-4.588l6.999 7.723s5.317 1.727 6.257-.934z" fill="#000" opacity=".1"/><path d="m338.518 231.057s.429 7.863 5.195 7.94c4.767.076-5.195-7.94-5.195-7.94zm4.907 0s3.609 6.564 5.343 5.7c1.733-.863-5.343-5.7-5.343-5.7z" fill="#000" opacity=".1"/><path d="m242.927 167.045-5.035 1.862s-9.693.531-14.792 2.649c-5.099 2.117-15.496 0-15.496 0s18.094-23.583 18.382-23.673 19.155-7.038 19.155-7.038z" fill="#cbcdda"/><path d="m242.927 167.045-5.035 1.862s-9.693.531-14.792 2.649c-5.099 2.117-15.496 0-15.496 0s18.094-23.583 18.382-23.673 19.155-7.038 19.155-7.038z" fill="#000" opacity=".03"/><path d="m314.91 424.186c-1.055 3.276-5.291 24.741-7.6 28.203-2.31 3.461-5.004 23.384-5.004 23.384l-.518.365-1.119.787s-16.565-.768-14.645-3.749a8.676 8.676 0 0 0 .723-2.79c1.279-8.1 1.394-29.642 1.394-29.642l.192-34.171s4.351-11.024 1.344-19.15a42.49 42.49 0 0 1 -2.694-15.009s.48-7.895-1.637-11.069c-1.715-2.559-2.041-16.174-2.099-21.177v-1.855l2.687-4.012 29.43 2.022s-.064 2.373-.243 5.451a92.35 92.35 0 0 1 -1.1 10.716c-1.056 5.484-.096 19.725-.096 19.725l1.638 18.555c3.87 8.976.409 30.147-.653 33.416z" fill="#ffb9b9"/><path d="m283.254 343.335v.218c-10.595 6.756-20.371 6.398-26.558 5.048-.64-2.56-1.069-4.479-1.069-4.479l26.872-2.981s.281.806.755 2.194z" fill="#000" opacity=".05"/><path d="m326.56 268.76-.39 7.473-.864 16.871-42.053 6.84v42.444c-17.812 11.35-33.269 2.687-33.269 2.687s.288-14.338 0-15.784-1.158-7.312-1.158-7.312-1.83-6.066-1.439-7.889c.39-1.824-1.837-7.505-2.7-9.597-.864-2.092-1.824-9.424-1.824-9.424l-.985-8.503a4.489 4.489 0 0 1 -1.542-1.837c-.166-.543.179-5.604.499-9.814.243-3.122.467-5.758.467-5.758l39.264-7.409z" fill="#4c4c78"/><path d="m281.974 305.069v33.269c-.787-.46-1.881-1.606-1.99-4.402-.173-4.427-.525-14.913-1.152-19.629-.627-4.715 2.393-9.821 2.393-9.821z" fill="#000" opacity=".05"/><path d="m257.937 291.569s1.919 4.331 8.183 5.483c6.263 1.152-8.183-5.483-8.183-5.483zm-6.059 8.663s13.275 2.214 16.455 2.118zm4.037 9.718s7.479.096 11.779-1.83zm-1.536 22.617s19.245-7.345 21.555-11.183zm4.524 9.431c.64-.096 17.607-10.301 19.053-12.994zm56.487-5.701s-.064 2.374-.243 5.451l-31.881-1.606v-1.855l2.687-4.011zm-26.059-38.093s16.225-4.006 19.642-1.427c3.416 2.578-19.642 1.427-19.642 1.427zm-16.186-28.388s3.269 30.608 5.969 32.63c2.7 2.021 14.145-32.63 14.145-32.63z" fill="#000" opacity=".1"/><path d="m273.721 268.664s3.275 30.608 5.969 32.63c2.693 2.022 14.146-32.63 14.146-32.63z" fill="#4c4c78"/><path d="m326.561 268.76-.391 7.473a27.512 27.512 0 0 1 -8.272-4.779 3.512 3.512 0 0 0 -.403-.307c-3.282-2.348-7.575-1.485-10.378-.493-.993.351-1.958.779-2.885 1.28 0 0-42.539 1.446-42.539.287 0-.85-6.021.448-10.071 1.568a30.468 30.468 0 0 0 -3.199 1.03c-1.535.64-5.291.358-7.453.109h-.135c.244-3.122.468-5.758.468-5.758l39.263-7.409z" fill="#000" opacity=".1"/><path d="m327.61 273.763a10.902 10.902 0 0 1 -1.35-.39 27.207 27.207 0 0 1 -8.369-4.811 5.87 5.87 0 0 0 -.403-.307c-3.282-2.342-7.575-1.485-10.377-.487a19.51 19.51 0 0 0 -2.886 1.28s-42.539 1.446-42.539.288c0-.851-6.02.448-10.07 1.567a32.515 32.515 0 0 0 -3.199 1.024c-1.536.64-5.291.358-7.454.115-.947-.115-1.593-.211-1.593-.211v-.326l2.105-53.379 6.059-47.537 2.22-19.923 7.197-3.506 7.236-3.525a18.834 18.834 0 0 0 2.764 3.071c3.679 3.333 10.838 7.492 20.397 1.868a29.49 29.49 0 0 0 3.02-2.047c3.263-2.515 6.327.326 9.142 6.455 11.005 23.878 18.189 97.582 18.189 97.582l10.877 7.038s.371 1.388.729 3.365c.729 4.102 1.369 10.781-1.695 12.796z" fill="#000" opacity=".1"/><path d="m327.61 274.915a10.076 10.076 0 0 1 -1.35-.384 27.518 27.518 0 0 1 -8.368-4.811 4.415 4.415 0 0 0 -.403-.307c-3.283-2.342-7.576-1.485-10.378-.493-.994.349-1.959.777-2.885 1.28 0 0-42.514 1.478-42.514.294 0-.857-6.021.441-10.07 1.561a31.941 31.941 0 0 0 -3.199 1.03c-1.536.64-5.291.358-7.454.109-.947-.109-1.593-.205-1.593-.205v-.333l2.105-53.372 6.059-47.543 2.22-19.923 7.197-3.506 7.236-3.519a18.7 18.7 0 0 0 2.764 3.064c3.679 3.34 10.838 7.499 20.397 1.875a29.392 29.392 0 0 0 3.02-2.054c3.262-2.514 6.327.333 9.142 6.456 10.998 23.871 18.183 97.582 18.183 97.582l10.876 7.038s.371 1.388.73 3.359c.71 4.113 1.35 10.787-1.715 12.802z" fill="#fff"/><path d="m329.312 262.081c-2.828 3.576-7.524 5.873-11.817 7.306a51.789 51.789 0 0 1 -9.719 2.291l-.639-2.758c-1.568-6.289-5.522-21.753-7.793-27.511-2.892-7.307-3.666-15.778-3.666-15.778a82.636 82.636 0 0 0 -4.274-22.713c-1.862-5.412-2.911-20.774-3.506-35.95-.237-5.982-.403-11.938-.524-17.242-.237-10.922-.256-19.086-.256-19.086l3.461-5.489a11.266 11.266 0 0 1 1.567-7.038 18.139 18.139 0 0 1 3.532-4.421c1.356.723 2.604 1.395 3.781 2.009l19.514 13.775s-10.794 13.781-19.437 24.645c10.998 23.871 18.183 97.582 18.183 97.582l10.876 7.038s.358 1.42.717 3.34z" fill="#000" opacity=".1"/><path d="m326.465 225.452c-.583 11.158 6.538 29.828 6.538 29.828-1.151 13.282-24.056 15.79-24.056 15.79s-5.585-22.905-8.471-30.224c-2.885-7.32-3.659-15.784-3.659-15.784a82.788 82.788 0 0 0 -4.28-22.707c-4.095-11.938-4.287-72.297-4.287-72.297l3.468-5.483a11.259 11.259 0 0 1 1.561-7.038 18.205 18.205 0 0 1 3.538-4.421 388.33 388.33 0 0 0 7.62 3.993c2.169 1.1 4.152 2.047 5.841 2.789 5.988 2.611 9.283 3.014 16.251 3.807.568.06 1.132.156 1.689.288 10.038 2.297 17.875 14.261 17.875 15.08s1.952 3.327 3.199 4.907c1.248 1.581-.87 4.261-.87 4.261s3.839 2.7 3.276 5.202c-.563 2.501 2.885 6.737 2.885 6.737l-21.561 16.36s-5.982 37.741-6.557 48.912z" fill="#cbcdda"/><path d="m291.603 142.016a1.19 1.19 0 1 0 0-2.38 1.19 1.19 0 0 0 0 2.38zm0 15.88a1.19 1.19 0 1 0 0-2.38 1.19 1.19 0 0 0 0 2.38zm4.19 37.799a1.19 1.19 0 1 0 0-2.38 1.19 1.19 0 0 0 0 2.38zm3.033 19.348a1.19 1.19 0 1 0 0-2.38 1.19 1.19 0 0 0 0 2.38zm2.955 20.422a1.19 1.19 0 1 0 0-2.38 1.19 1.19 0 0 0 0 2.38zm-7.799-58.983a1.19 1.19 0 1 0 .001-2.381 1.19 1.19 0 0 0 -.001 2.381z" fill="#767d9f"/><path d="m304.437 118.28c-1.612 2.111-5.758 5.118-6.053 5.118-1.087 0-3.717-3.026-5.118-4.722a18.266 18.266 0 0 1 3.538-4.414 279.636 279.636 0 0 0 7.633 4.018z" fill="#000" opacity=".1"/><path d="m304.437 117.128c-1.612 2.105-5.758 5.15-6.053 5.15-1.087 0-3.717-3.026-5.118-4.721a18.239 18.239 0 0 1 3.538-4.422 425.628 425.628 0 0 0 7.633 3.993z" fill="#cbcdda"/><path d="m272.658 135.848s-2.898 6.949-5.7 12.016a22.137 22.137 0 0 1 -3.052 4.536c-1.612 1.612-3.199 6.462-4.421 10.832-1.164 4.235-1.919 8.029-1.919 8.029-1.638 2.508-1.638 33.59-1.638 33.59 2.796 11.938-2.31 45.809-2.31 45.809l-1.503 16.443-.461 4.952-.083.941c-1.081.044-2.124.076-3.122.089a71.82 71.82 0 0 1 -7.422-.262 38.4 38.4 0 0 1 -1.612-.166l2.105-53.372 6.059-47.544 2.22-19.923 7.197-3.506c1.184-9.457 3.468-20.896 7.716-25.464a12.986 12.986 0 0 0 2.732-4.652 21.3 21.3 0 0 1 1.721-1.362s.742 1.426 1.619 3.135c.94 1.836 2.041 3.998 2.559 5.118 1.049 2.099-.685 10.761-.685 10.761z" fill="#000" opacity=".1"/><path d="m271.507 135.273s-5.579 13.378-8.753 16.551c-3.173 3.174-6.353 18.861-6.353 18.861-1.638 2.508-1.638 33.59-1.638 33.59 2.79 11.938-2.309 45.809-2.309 45.809l-2.073 22.329c-38.163 1.766-27.697-19.341-27.697-19.341l8.855-47.985s2.937-14.369 2.649-18.413 3.679-17.754 3.679-17.754-7-36.379-6.277-38.036 25.118-5.759 25.118-5.759c.818.027 1.636-.039 2.438-.198 1.42-.294 3.026-.992 3.551-2.617 1.017-3.109 5.252-6.02 5.252-6.02s.736 1.427 1.613 3.141a455.09 455.09 0 0 1 2.597 5.119c1.069 2.06-.652 10.723-.652 10.723z" fill="#cbcdda"/><path d="m269.587 120.551c-3.781 3.41-7.843 15.681-7.843 15.681l-2.559-10.185c1.42-.295 3.026-.992 3.55-2.617 1.018-3.103 5.253-6.014 5.253-6.014z" fill="#000" opacity=".1"/><path d="m269.587 119.406c-3.781 3.41-7.843 15.681-7.843 15.681l-2.559-10.186c1.42-.294 3.026-.991 3.55-2.616 1.018-3.11 5.253-6.021 5.253-6.021z" fill="#cbcdda"/><path d="m224.757 254.8s.506 5.847 12.489 2.239-12.489-2.239-12.489-2.239z" fill="#000" opacity=".1"/><path d="m373.137 199.751c-1.734 3.27-3.948 8.663-5.675 9.431-.697.307-2.892.294-5.291.166-3.589-.191-7.607-.639-7.607-.639s9.04-19.674-3.282-24.684h-11.152l-7.127-7.434 18.765-17.998 2.796 1.638 14.241 21.235s1.446 1.632 2.796 3.199c1.35 1.568.378 4.523.378 4.523s2.892 7.294 1.158 10.563z" fill="#cbcdda"/><path d="m305.524 178.58s5.407-42.418 21.536-53.992a14.537 14.537 0 0 0 -1.683-.288c-6.967-.793-10.237-1.196-16.257-3.839a42.227 42.227 0 0 0 -11.414 31.35c1.184 21.657 0 26.712 0 26.712h1.92c3.442 6.974 18.054 35.944 26.167 42.028l.864-7.37s-21.062-24.313-22.886-34.658z" fill="#000" opacity=".1"/><path d="m307.834 178.005s5.406-42.425 21.535-53.993a13.312 13.312 0 0 0 -1.682-.288c-6.968-.793-10.237-1.196-16.257-3.807a42.227 42.227 0 0 0 -11.414 31.35c1.183 21.658 0 26.712 0 26.712h1.919c3.442 6.974 18.055 35.938 26.167 42.022l.864-7.364s-21.062-24.312-22.879-34.658z" fill="#000" opacity=".1"/><path d="m300.009 176.488s17.671 36.61 26.91 43.507l.863-7.364s-24.779-28.599-22.904-36.968z" fill="#6e6d84"/><path d="m328.25 124.012c-16.136 11.568-21.542 53.993-21.542 53.993h-7.85s1.183-5.055 0-26.712a42.231 42.231 0 0 1 11.42-31.35c5.988 2.61 9.283 3.013 16.251 3.807.578.05 1.153.138 1.721.262z" fill="#6e6d84"/><path d="m319.248 219.361-.506 29.45 4.978 2.527zm10.966-62.15c3.32-.793 11.836-3.608 12.156-6.398.32-2.789-12.156 6.398-12.156 6.398zm.505 5.56s10.537-4.338 12.201-6.065c1.663-1.728-13.788 2.604-12.201 6.065zm-73.934-30.774s-4.6 9.072-1.83 10.019c2.771.947 1.83-10.019 1.83-10.019zm35.221 99.06s-36.955 21.823-29.162 23.071c7.793 1.247 29.162-23.071 29.162-23.071zm22.168 46.168s9.719 1.829 9.335 4.817z" fill="#000" opacity=".1"/><path d="m359.733 192.106-.435 11.235s-2.738 4.76-4.734 5.361c-.242.053-.489.07-.736.051-3.922-.211-18.726-4.542-20.051-6.999-1.446-2.668-23.314-12.265-23.314-12.265s-18.4-27.94-4.619-34.722 13.135 26.347 13.135 26.347 12.489 1.875 14.075 2.886c1.331.87 13.609.262 17.275.057l.953-.032 3.896.717z" fill="#ffb9b9"/><path d="m359.734 192.106-.435 11.235s-2.739 4.76-4.735 5.361c-.241.053-.489.07-.736.051l-.39-.044s8.957-19.527-3.141-24.652l.985-.032 3.896.717z" fill="#000" opacity=".1"/><path d="m362.747 209.348c-3.583-.192-7.601-.639-7.601-.639s9.034-19.668-3.269-24.703l9.642-.953c12.066 8.01 3.717 22.508 1.228 26.295z" fill="#000" opacity=".1"/><path d="m362.158 209.348c-3.589-.192-7.607-.639-7.607-.639s9.053-19.674-3.269-24.684l9.667-.94c12.086 7.978 3.711 22.476 1.209 26.263z" fill="#cbcdda"/><path d="m217.24 137.96 27.901-24.824s7.505-7.038 6.929-9.239-6.833-21.753 3.653-22.905c10.487-1.151 7.038 32.719 7.038 32.719l-29.929 36.763z" fill="#ffb9b9"/><path d="m199.716 164.332s-2.021-9.526 1.056-12.988c3.077-3.461 17.038-15.592 17.038-15.592s7.005 10.877 19.436 9.29l-13.921 18.618s-6.162 8.087-15.112 7.313c-8.951-.774-8.497-6.641-8.497-6.641z" fill="#000" opacity=".1"/><path d="m199.134 164.914s-2.022-9.526 1.062-12.994 17.031-15.592 17.031-15.592 11.939 12.028 18.772 13.474l-13.282 14.434s-6.161 8.087-15.112 7.32c-8.951-.768-8.471-6.642-8.471-6.642z" fill="#cbcdda"/><path d="m222.921 142.15-12.45-1.106s5.553-6.93 8.515-7.147c2.963-.218 3.052.377 3.052.377l-3.928 3.494z" fill="#000" opacity=".1"/><path d="m222.921 141.575-12.45-1.107s5.553-6.929 8.515-7.147c2.963-.217 3.052.378 3.052.378l-3.928 3.493z" fill="#cbcdda"/><path d="m225.244 144.537s-3.199 11.337 7.888 12.098l3.538-10.998s-7.178 1.408-11.426-1.1z" fill="#000" opacity=".1"/><path d="m225.826 143.961s-3.231 11.305 7.882 12.099l3.538-11.018s-7.172 1.427-11.42-1.081z" fill="#cbcdda"/><path d="m315.755 389.906-1.638-18.554s-.96-14.242.096-19.725a93.71 93.71 0 0 0 1.107-10.717c.172-3.077.243-5.451.243-5.451l-29.431-2.022-.076.115 27.792 1.92s-.07 2.373-.243 5.451a95.308 95.308 0 0 1 -1.1 10.716c-1.063 5.484-.103 19.725-.103 19.725l1.644 18.555c3.839 8.957.378 30.121-.678 33.391-1.055 3.269-5.297 24.741-7.607 28.202s-5.022 23.372-5.022 23.372l-1.504 1.062 1.593.096 1.645-1.158s2.687-19.917 4.996-23.385c2.31-3.467 6.552-24.952 7.607-28.202 1.056-3.25 4.53-24.44.679-33.391z" fill="#000" opacity=".1"/><path d="m319.344 289.451 5.962 3.653v48.03l-43.332-2.182-2.988-35.285 7.101-8.637z" fill="#4c4c78"/><path d="m287.674 316.687s18.292 14.914 23.871 15.88zm14.633 157.935c-.219.49-.393 1-.519 1.522l-1.119.787s-16.564-.774-14.645-3.755a8.676 8.676 0 0 0 .723-2.79c3.871-.896 10.435 3.557 10.435 3.557z" fill="#000" opacity=".1"/><path d="m303.554 506.861c-1.152 2.31-1.536 7.793-1.536 7.793s-3.563 5.387-8.567 3.755c-5.003-1.631-19.923-.966-20.793-1.343-2.808-1.28-1.58-4.223 0-6.936.915-1.554 1.92-3.019 2.4-4.037 1.279-2.796 4.139-10.109 4.139-10.109-.384-5.969 4.043-11.068 4.043-11.068l1.92-12.515c3.244-3.263 12.028 2.7 12.028 2.7l5.118.679c-2.597 5.675.096 21.554.096 21.554s.422 1.331.825 3.039c.519 2.272.986 5.17.327 6.488z" fill="#c7c0d9"/><path d="m303.554 506.861c-1.152 2.31-1.536 7.793-1.536 7.793s-3.563 5.387-8.567 3.755c-5.003-1.631-19.923-.966-20.793-1.343-2.808-1.28-1.58-4.223 0-6.936 6.776.372 21.932 1.082 25.304-.192 4.325-1.631 5.297-7.268 5.253-9.552.531 2.259.998 5.157.339 6.475z" fill="#000" opacity=".1"/><path d="m295.102 489.209a.992.992 0 1 0 0-1.984.992.992 0 0 0 0 1.984zm-11.849 0a.992.992 0 1 0 0-1.984.992.992 0 0 0 0 1.984zm11.849 5.374a.992.992 0 1 0 0-1.983.992.992 0 0 0 0 1.983zm-12.098 0a.992.992 0 1 0 0-1.983.992.992 0 0 0 0 1.983zm9.123 12.182a.992.992 0 1 0 0-1.984.992.992 0 0 0 0 1.984zm-10.115 0a.992.992 0 1 0 0-1.984.992.992 0 0 0 0 1.984zm10.595-2.732a.992.992 0 1 0 0-1.983.992.992 0 0 0 0 1.983zm-10.345 0a.991.991 0 1 0 0-1.983.991.991 0 0 0 0 1.983zm10.857-3.154a.992.992 0 1 0 -.001-1.983.992.992 0 0 0 .001 1.983zm-9.866 0a.992.992 0 1 0 0-1.984.992.992 0 0 0 0 1.984zm10.857-3.148a.992.992 0 1 0 0-1.984.992.992 0 0 0 0 1.984zm-10.857 0a.992.992 0 1 0 0-1.984.992.992 0 0 0 0 1.984z" fill="#605b89"/><path d="m285.384 480.892s4.913 6.097 11.164 1.279" opacity=".1" stroke="#000" stroke-miterlimit="10"/><path d="m283.254 488.217s12.84 3.199 11.848 5.375c0 0-11.292-1.626-12.098 0-.806 1.625 11.107 3.147 11.107 3.147s-9.795 1.53-10.877 0c-1.081-1.529 9.866 3.148 9.866 3.148s-9.866-.991-9.866 0c0 .992 9.354 3.154 9.354 3.154s-8.739-.921-9.354 0c-.614.922 8.701 1.28 8.874 2.732.173 1.453-10.115-.991-10.115 0 0 .992 13.09-17.556 13.09-17.556" opacity=".2" stroke="#605b89" stroke-miterlimit="10"/><path d="m39.68 509.695c10.572 0 19.142-1.449 19.142-3.237s-8.57-3.237-19.142-3.237-19.143 1.449-19.143 3.237 8.57 3.237 19.143 3.237z" fill="#4965f6" opacity=".1"/><path d="m26.82 491.423s10.921-.339 14.21-2.681c3.288-2.342 16.794-5.118 17.613-1.382s16.41 18.688 4.082 18.791c-12.329.102-28.644-1.92-31.932-3.922-3.289-2.003-3.973-10.806-3.973-10.806z" fill="#a8a8a8"/><path d="m62.942 504.839c-12.328.103-28.643-1.919-31.925-3.922-2.502-1.522-3.5-6.986-3.839-9.513h-.364s.69 8.803 3.973 10.806c3.282 2.002 19.603 4.018 31.931 3.922 3.558-.032 4.786-1.28 4.722-3.199-.486 1.177-1.849 1.887-4.498 1.906z" fill="#000" opacity=".2"/></g></svg>